<svg width="476px" height="440px" viewBox="-30 -30 540 482" version="1.1" xmlns="http://www.w3.org/2000/svg">
    <path d="M462.286,14.25 C453.333,5.298 442.571,0.822 430,0.822 L46,0.822 C33.429,0.822 22.667,5.298 13.716,14.25 C4.764,23.202 0.287,33.964 0.287,46.535 L0.287,393.963 C0.287,406.535 4.764,417.297 13.716,426.249 C22.667,435.201 33.429,439.677 46,439.677 L430,439.677 C442.572,439.677 453.334,435.202 462.286,426.249 C471.238,417.296 475.714,406.534 475.714,393.963 L475.714,46.535 C475.714,33.964 471.239,23.202 462.286,14.25 Z M440.501,405.25 L35.501,405.25 L35.501,40.25 L440.501,40.25 L440.501,405.25 Z" id="Shape"></path>
</svg>