<?xml version="1.0" encoding="utf-8"?>
<!-- Generated by IcoMoon.io -->
<!DOCTYPE svg PUBLIC "-//W3C//DTD SVG 1.1//EN" "http://www.w3.org/Graphics/SVG/1.1/DTD/svg11.dtd">
<svg version="1.1" xmlns="http://www.w3.org/2000/svg" xmlns:xlink="http://www.w3.org/1999/xlink" width="512" height="512" viewBox="0 0 512 512">
<path d="M81.382 153.549c-10.829-8.96-27.059-7.424-36.045 3.379l-32.691 39.399c-8.96 10.829-7.449 27.085 3.354 36.019l201.933 167.475-97.459-213.863-39.091-32.41zM179.533 68.685l-46.592 21.222c-12.775 5.837-18.483 21.12-12.672 33.894l108.8 238.72 5.453-234.982-21.043-46.183c-5.888-12.8-21.145-18.509-33.946-12.672zM363.801 73.907c0.333-14.080-10.931-25.856-24.986-26.189l-51.2-1.178c-14.055-0.333-25.831 10.931-26.163 24.986l-6.119 262.221 107.264-209.075 1.203-50.765zM491.289 98.227l-45.543-23.373c-12.519-6.4-28.058-1.408-34.483 11.111l-163.609 318.873c-6.425 12.519-1.434 28.058 11.11 34.483l45.543 23.373c12.519 6.425 28.032 1.433 34.457-11.085l163.609-318.873c6.425-12.57 1.433-28.083-11.085-34.509zM327.654 417.101c-6.451 12.595-21.888 17.562-34.457 11.111-12.595-6.451-17.536-21.863-11.085-34.457s21.863-17.536 34.457-11.085c12.595 6.425 17.536 21.863 11.085 34.432z" fill="#444444"></path>
</svg>
