<?xml version="1.0" encoding="utf-8"?>
<!-- Generator: Adobe Illustrator 15.0.0, SVG Export Plug-In . SVG Version: 6.00 Build 0)  -->
<!DOCTYPE svg PUBLIC "-//W3C//DTD SVG 1.1//EN" "http://www.w3.org/Graphics/SVG/1.1/DTD/svg11.dtd">
<svg version="1.1" id="Layer_1" xmlns="http://www.w3.org/2000/svg" xmlns:xlink="http://www.w3.org/1999/xlink" x="0px" y="0px"
	 width="403px" height="512px" viewBox="0 0 403 512" enable-background="new 0 0 403 512" xml:space="preserve">
<path d="M336.263,59.929l42.67,42.669c5.927,5.926,8.888,13.038,8.888,21.334c0,8.297-2.961,15.407-8.888,21.333l-92.449,92.449
	l92.449,92.448c5.927,5.928,8.888,13.039,8.888,21.337c0,8.295-2.961,15.408-8.888,21.334l-42.67,42.669
	c-5.926,5.926-13.037,8.89-21.334,8.89c-8.298-0.001-15.409-2.964-21.334-8.89l-92.45-92.449l-92.449,92.449
	c-5.927,5.925-13.036,8.889-21.335,8.888c-8.295,0.002-15.406-2.963-21.333-8.888l-42.669-42.668
	c-5.927-5.928-8.891-13.04-8.89-21.335c0-8.298,2.962-15.409,8.89-21.337l92.448-92.448l-92.448-92.448
	c-5.928-5.925-8.89-13.037-8.89-21.333c-0.001-8.297,2.963-15.408,8.89-21.335l42.669-42.669c5.927-5.926,13.038-8.891,21.335-8.891
	c8.295,0,15.406,2.963,21.334,8.89l92.448,92.448l92.45-92.449c5.925-5.926,13.036-8.89,21.334-8.889
	C323.226,51.038,330.337,54.002,336.263,59.929L336.263,59.929z"/>
</svg>
