<svg width="354px" height="354px" viewBox="0 0 354 354" version="1.1" xmlns="http://www.w3.org/2000/svg">
    <polygon id="Path" fill="#000000" fill-rule="nonzero" points="83 133 272 133 272 166 83 166"></polygon>
    <polygon id="Path" fill="#000000" fill-rule="nonzero" points="116 188 240 188 240 218 116 218"></polygon>
    <polygon id="Path" fill="#000000" fill-rule="nonzero" points="150 242 206 242 206 264 150 264"></polygon>
    <path d="M340.07716,108.093742 C331.183651,87.0324973 318.411216,68.0950754 302.143321,51.8566786 C285.875427,35.5887843 266.982251,22.860595 245.906258,13.9228398 C224.063328,4.70485793 200.87826,0 177,0 C153.12174,0 129.936672,4.70485793 108.093742,13.9228398 C87.0324973,22.8163486 68.0950754,35.5887843 51.8566786,51.8566786 C35.5887843,68.124573 22.860595,87.0177485 13.9228398,108.093742 C4.70485793,129.936672 0,153.12174 0,177 C0,200.87826 4.70485793,224.063328 13.9228398,245.906258 C22.8163486,266.967503 35.5887843,285.904925 51.8566786,302.143321 C68.124573,318.411216 87.0177485,331.139405 108.093742,340.07716 C129.936672,349.295142 153.12174,354 177,354 C200.87826,354 224.063328,349.295142 245.906258,340.07716 C266.967503,331.183651 285.904925,318.411216 302.143321,302.143321 C318.411216,285.875427 331.139405,266.982251 340.07716,245.906258 C349.295142,224.063328 354,200.87826 354,177 C354,153.12174 349.295142,129.936672 340.07716,108.093742 Z M177.014749,324.487709 C95.7195234,324.487709 29.5270394,258.295225 29.5270394,177 C29.5270394,95.7047746 95.7195234,29.5122906 177.014749,29.5122906 C258.324723,29.5122906 324.502458,95.7047746 324.502458,177 C324.502458,258.295225 258.309974,324.487709 177.014749,324.487709 Z" id="Shape" fill="#000000" fill-rule="nonzero"></path>
</svg>