<svg version="1.1" xmlns="http://www.w3.org/2000/svg" width="256" height="256" viewBox="0 0 256 256">
<title>eyedropper</title>
<path d="M246.627 9.373c-12.497-12.496-32.758-12.496-45.255 0l-43.029 43.029-30.343-30.343-33.941 33.941 26.606 26.606-118.029 118.029c-2.012 2.012-2.867 4.739-2.575 7.364h-0.061v40c0 4.418 3.582 8 8 8h40c0 0 0.666 0 1 0 2.303 0 4.606-0.879 6.364-2.636l118.029-118.030 26.607 26.607 33.941-33.941-30.343-30.343 43.030-43.029c12.497-12.497 12.497-32.758 0-45.255zM43.273 240h-27.273v-27.273l117.394-117.393 27.272 27.272-117.393 117.394z"></path>
</svg>
