<?xml version="1.0" encoding="utf-8"?>
<!-- Generator: Adobe Illustrator 15.0.0, SVG Export Plug-In . SVG Version: 6.00 Build 0)  -->
<!DOCTYPE svg PUBLIC "-//W3C//DTD SVG 1.1//EN" "http://www.w3.org/Graphics/SVG/1.1/DTD/svg11.dtd">
<svg version="1.1" id="Layer_1" xmlns="http://www.w3.org/2000/svg" xmlns:xlink="http://www.w3.org/1999/xlink" x="0px" y="0px"
	 width="512px" height="512px" viewBox="0 0 512 512" enable-background="new 0 0 512 512" xml:space="preserve">
<path fill="#444444" d="M225.406,152.383c0-12.933,10.575-23.508,23.508-23.508h15.672c12.933,0,23.508,10.575,23.508,23.508v15.672
	c0,12.933-10.575,23.508-23.508,23.508h-15.672c-12.933,0-23.508-10.575-23.508-23.508V152.383z"/>
<path fill="#444444" d="M319.438,379.625H194.062v-31.344h31.344V254.25h-31.344v-31.344h94.031v125.375h31.344V379.625z"/>
<path fill="#444444" d="M256.75,3.5C118.26,3.5,6,115.76,6,254.25S118.26,505,256.75,505S507.5,392.74,507.5,254.25
	S395.24,3.5,256.75,3.5z M256.75,457.984c-112.528,0-203.734-91.215-203.734-203.734c0-112.527,91.207-203.734,203.734-203.734
	c112.521,0,203.734,91.208,203.734,203.734C460.484,366.77,369.271,457.984,256.75,457.984z"/>
</svg>
