<svg width="443px" height="443px" viewBox="-30 -30 500 500" version="1.1" xmlns="http://www.w3.org/2000/svg">
    <path d="M442.286,232.143 C442.286,239.761667 439.619333,250.237667 434.286,255.571 C428.952667,260.904333 422.476667,263.571 414.858,263.571 L263.001,263.571 L263.001,415.428 C263.001,423.046667 260.334333,429.522667 255.001,434.856 C249.667667,440.189333 243.191667,442.856 235.573,442.856 L206.716,442.856 C199.096667,442.856 192.620333,440.189333 187.287,434.856 C181.953667,429.522667 179.287,423.046667 179.287,415.428 L179.287,263.571 L27.43,263.571 C19.8113333,263.571 13.3353333,260.904333 8.002,255.571 C2.66866667,250.237667 0.002,243.761667 0.002,236.143 L0.002,207.286 C0.002,199.666667 2.66866667,193.190333 8.002,187.857 C13.3353333,182.523667 19.8113333,179.857 27.43,179.857 L179.287,179.857 L179.287,28 C179.287,20.3813333 181.953667,13.9053333 187.287,8.572 C192.620333,3.23866667 199.096333,0.572 206.715,0.572 L235.572,0.572 C243.191333,0.572 249.667667,3.23866667 255.001,8.572 C260.334333,13.9053333 263.001,20.3813333 263.001,28 L263.001,179.857 L414.858,179.857 C422.476667,179.857 428.952667,182.523667 434.286,187.857 C439.619333,193.190333 442.286,199.666333 442.286,207.285 L442.286,232.143 Z" id="Path"></path>
</svg>