<?xml version="1.0" encoding="utf-8"?>
<!-- Generator: Adobe Illustrator 15.0.0, SVG Export Plug-In . SVG Version: 6.00 Build 0)  -->
<!DOCTYPE svg PUBLIC "-//W3C//DTD SVG 1.1//EN" "http://www.w3.org/Graphics/SVG/1.1/DTD/svg11.dtd">
<svg version="1.1" id="Layer_1" xmlns="http://www.w3.org/2000/svg" xmlns:xlink="http://www.w3.org/1999/xlink" x="0px" y="0px"
	 width="439px" height="512px" viewBox="0 0 439 512" enable-background="new 0 0 439 512" xml:space="preserve">
<path d="M311.252,136.844c-27.494-25.725-59.91-38.587-97.249-38.587c-19.32,0-37.757,3.802-55.312,11.408
	c-17.555,7.605-32.742,17.886-45.561,30.842c-12.818,12.956-22.989,28.306-30.512,46.051c-7.522,17.745-11.284,36.382-11.286,55.909
	s3.76,38.164,11.286,55.911c7.526,17.744,17.696,33.096,30.512,46.051c12.816,12.956,28.003,23.235,45.561,30.843
	c17.558,7.605,35.995,11.408,55.312,11.408c22.106,0,43.006-4.883,62.696-14.646c19.692-9.765,36.318-23.566,49.88-41.404
	c1.3-1.878,3.437-3.004,6.409-3.379c2.601,0,4.923,0.845,6.967,2.533l38.174,38.871c1.674,1.501,2.556,3.427,2.647,5.771
	c0.093,2.348-0.604,4.459-2.089,6.339c-20.248,24.786-44.77,43.985-73.564,57.6c-28.792,13.612-59.166,20.419-91.119,20.419
	c-28.98,0-56.66-5.727-83.039-17.181c-26.378-11.455-49.135-26.85-68.27-46.193c-19.135-19.341-34.368-42.342-45.699-69.008
	C5.667,299.739,0,271.76,0,242.467s5.667-57.271,16.998-83.936c11.331-26.664,26.564-49.666,45.699-69.007
	c19.134-19.341,41.891-34.739,68.27-46.192c26.379-11.454,54.059-17.182,83.039-17.182c27.309,0,53.734,5.211,79.277,15.632
	c25.544,10.422,48.254,25.116,68.132,44.082l68.549-78.866c5.388-5.821,3.9,196.179,3.9,204.065l-204.811,23.66"/>
</svg>
